HIERARCHY
ROOT Hips
{
  OFFSET 0.000 76.343 0.000
  CHANNELS 6 Xposition Yposition Zposition Zrotation Xrotation Yrotation
  JOINT LeftUpLeg
  {
    OFFSET 5.345 0.643 3.094
    CHANNELS 6 Xposition Yposition Zposition Zrotation Xrotation Yrotation
    JOINT LeftLeg
    {
      OFFSET 0.000 -31.895 0.000
      CHANNELS 6 Xposition Yposition Zposition Zrotation Xrotation Yrotation
      JOINT LeftFoot
      {
        OFFSET 0.000 -45.091 0.000
        CHANNELS 6 Xposition Yposition Zposition Zrotation Xrotation Yrotation
        End Site
        {
          OFFSET 0.000 0.000 10.896
        }
      }
    }
  }
  JOINT RightUpLeg
  {
    OFFSET -5.345 0.643 3.094
    CHANNELS 6 Xposition Yposition Zposition Zrotation Xrotation Yrotation
    JOINT RightLeg
    {
      OFFSET 0.000 -31.895 0.000
      CHANNELS 6 Xposition Yposition Zposition Zrotation Xrotation Yrotation
      JOINT RightFoot
      {
        OFFSET 0.000 -45.091 0.000
        CHANNELS 6 Xposition Yposition Zposition Zrotation Xrotation Yrotation
        End Site
        {
          OFFSET 0.000 0.000 10.896
        }
      }
    }
  }
  JOINT Spine
  {
    OFFSET 0.000 34.300 0.000
    CHANNELS 6 Xposition Yposition Zposition Zrotation Xrotation Yrotation
    JOINT Spine1
    {
      OFFSET 0.000 25.000 0.000
      CHANNELS 6 Xposition Yposition Zposition Zrotation Xrotation Yrotation
      JOINT LeftShoulder
      {
        OFFSET 1.813 -0.140 0.145
        CHANNELS 6 Xposition Yposition Zposition Zrotation Xrotation Yrotation
        JOINT LeftArm
        {
          OFFSET 15.377 0.000 0.000
          CHANNELS 6 Xposition Yposition Zposition Zrotation Xrotation Yrotation
          JOINT LeftForeArm
          {
            OFFSET 22.771 0.000 0.000
            CHANNELS 6 Xposition Yposition Zposition Zrotation Xrotation Yrotation
            JOINT LeftHand
            {
              OFFSET 21.014 0.000 0.000
              CHANNELS 6 Xposition Yposition Zposition Zrotation Xrotation Yrotation
              JOINT LeftHandThumb1
              {
                OFFSET 4.877 -1.044 3.608
                CHANNELS 6 Xposition Yposition Zposition Zrotation Xrotation Yrotation
                JOINT LeftHandThumb2
                {
                  OFFSET 2.665 -0.000 0.000
                  CHANNELS 6 Xposition Yposition Zposition Zrotation Xrotation Yrotation
                  JOINT LeftHandThumb3
                  {
                    OFFSET 2.543 0.000 -0.000
                    CHANNELS 6 Xposition Yposition Zposition Zrotation Xrotation Yrotation
                    End Site
                    {
                      OFFSET 2.667 -0.000 0.000
                    }
                  }
                }
              }
              JOINT LeftHandIndex1
              {
                OFFSET 9.232 -0.301 2.144
                CHANNELS 6 Xposition Yposition Zposition Zrotation Xrotation Yrotation
                JOINT LeftHandIndex2
                {
                  OFFSET 4.225 -0.000 0.000
                  CHANNELS 6 Xposition Yposition Zposition Zrotation Xrotation Yrotation
                  JOINT LeftHandIndex3
                  {
                    OFFSET 2.654 -0.000 0.000
                    CHANNELS 6 Xposition Yposition Zposition Zrotation Xrotation Yrotation
                    End Site
                    {
                      OFFSET 1.958 0.000 0.000
                    }
                  }
                }
              }
              JOINT LeftHandMiddle1
              {
                OFFSET 8.920 -0.000 0.000
                CHANNELS 6 Xposition Yposition Zposition Zrotation Xrotation Yrotation
                JOINT LeftHandMiddle2
                {
                  OFFSET 4.863 0.000 -0.000
                  CHANNELS 6 Xposition Yposition Zposition Zrotation Xrotation Yrotation
                  JOINT LeftHandMiddle3
                  {
                    OFFSET 2.765 -0.000 0.000
                    CHANNELS 6 Xposition Yposition Zposition Zrotation Xrotation Yrotation
                    End Site
                    {
                      OFFSET 2.006 0.000 0.000
                    }
                  }
                }
              }
              JOINT LeftHandRing1
              {
                OFFSET 8.689 -0.126 -2.087
                CHANNELS 6 Xposition Yposition Zposition Zrotation Xrotation Yrotation
                JOINT LeftHandRing2
                {
                  OFFSET 4.538 0.000 0.000
                  CHANNELS 6 Xposition Yposition Zposition Zrotation Xrotation Yrotation
                  JOINT LeftHandRing3
                  {
                    OFFSET 2.305 0.000 0.000
                    CHANNELS 6 Xposition Yposition Zposition Zrotation Xrotation Yrotation
                    End Site
                    {
                      OFFSET 1.923 -0.000 0.000
                    }
                  }
                }
              }
              JOINT LeftHandPinky1
              {
                OFFSET 8.391 -0.817 -3.758
                CHANNELS 6 Xposition Yposition Zposition Zrotation Xrotation Yrotation
                JOINT LeftHandPinky2
                {
                  OFFSET 3.044 -0.000 0.000
                  CHANNELS 6 Xposition Yposition Zposition Zrotation Xrotation Yrotation
                  JOINT LeftHandPinky3
                  {
                    OFFSET 1.975 -0.000 0.000
                    CHANNELS 6 Xposition Yposition Zposition Zrotation Xrotation Yrotation
                    End Site
                    {
                      OFFSET 1.667 -0.000 -0.000
                    }
                  }
                }
              }
            }
          }
        }
      }
      JOINT RightShoulder
      {
        OFFSET -1.813 -0.140 0.145
        CHANNELS 6 Xposition Yposition Zposition Zrotation Xrotation Yrotation
        JOINT RightArm
        {
          OFFSET -15.377 0.000 0.000
          CHANNELS 6 Xposition Yposition Zposition Zrotation Xrotation Yrotation
          JOINT RightForeArm
          {
            OFFSET -22.771 0.000 0.000
            CHANNELS 6 Xposition Yposition Zposition Zrotation Xrotation Yrotation
            JOINT RightHand
            {
              OFFSET -21.014 0.000 0.000
              CHANNELS 6 Xposition Yposition Zposition Zrotation Xrotation Yrotation
              JOINT RightHandThumb1
              {
                OFFSET -4.877 -1.044 3.608
                CHANNELS 6 Xposition Yposition Zposition Zrotation Xrotation Yrotation
                JOINT RightHandThumb2
                {
                  OFFSET -2.665 -0.000 -0.000
                  CHANNELS 6 Xposition Yposition Zposition Zrotation Xrotation Yrotation
                  JOINT RightHandThumb3
                  {
                    OFFSET -2.543 0.000 0.000
                    CHANNELS 6 Xposition Yposition Zposition Zrotation Xrotation Yrotation
                    End Site
                    {
                      OFFSET -2.667 0.000 -0.000
                    }
                  }
                }
              }
              JOINT RightHandIndex1
              {
                OFFSET -9.232 -0.301 2.144
                CHANNELS 6 Xposition Yposition Zposition Zrotation Xrotation Yrotation
                JOINT RightHandIndex2
                {
                  OFFSET -4.225 0.000 0.000
                  CHANNELS 6 Xposition Yposition Zposition Zrotation Xrotation Yrotation
                  JOINT RightHandIndex3
                  {
                    OFFSET -2.654 -0.000 0.000
                    CHANNELS 6 Xposition Yposition Zposition Zrotation Xrotation Yrotation
                    End Site
                    {
                      OFFSET -1.958 0.000 -0.000
                    }
                  }
                }
              }
              JOINT RightHandMiddle1
              {
                OFFSET -8.920 0.000 -0.000
                CHANNELS 6 Xposition Yposition Zposition Zrotation Xrotation Yrotation
                JOINT RightHandMiddle2
                {
                  OFFSET -4.863 0.000 -0.000
                  CHANNELS 6 Xposition Yposition Zposition Zrotation Xrotation Yrotation
                  JOINT RightHandMiddle3
                  {
                    OFFSET -2.765 -0.000 0.000
                    CHANNELS 6 Xposition Yposition Zposition Zrotation Xrotation Yrotation
                    End Site
                    {
                      OFFSET -2.006 0.000 0.000
                    }
                  }
                }
              }
              JOINT RightHandRing1
              {
                OFFSET -8.689 -0.126 -2.087
                CHANNELS 6 Xposition Yposition Zposition Zrotation Xrotation Yrotation
                JOINT RightHandRing2
                {
                  OFFSET -4.538 -0.000 -0.000
                  CHANNELS 6 Xposition Yposition Zposition Zrotation Xrotation Yrotation
                  JOINT RightHandRing3
                  {
                    OFFSET -2.305 0.000 -0.000
                    CHANNELS 6 Xposition Yposition Zposition Zrotation Xrotation Yrotation
                    End Site
                    {
                      OFFSET -1.923 0.000 -0.000
                    }
                  }
                }
              }
              JOINT RightHandPinky1
              {
                OFFSET -8.391 -0.817 -3.758
                CHANNELS 6 Xposition Yposition Zposition Zrotation Xrotation Yrotation
                JOINT RightHandPinky2
                {
                  OFFSET -3.044 -0.000 0.000
                  CHANNELS 6 Xposition Yposition Zposition Zrotation Xrotation Yrotation
                  JOINT RightHandPinky3
                  {
                    OFFSET -1.975 0.000 0.000
                    CHANNELS 6 Xposition Yposition Zposition Zrotation Xrotation Yrotation
                    End Site
                    {
                      OFFSET -1.667 0.000 0.000
                    }
                  }
                }
              }
            }
          }
        }
      }
      JOINT Neck
      {
        OFFSET 0.000 0.678 0.000
        CHANNELS 6 Xposition Yposition Zposition Zrotation Xrotation Yrotation
        JOINT Head
        {
          OFFSET 0.000 6.143 0.000
          CHANNELS 6 Xposition Yposition Zposition Zrotation Xrotation Yrotation
          End Site
          {
            OFFSET 0.000 13.323 0.000
          }
        }
      }
    }
  }
}
MOTION
Frames:	4
Frame Time:	0.033333
5.79365 89.59227 -253.18933 5.13581 0.32341 39.95667 5.07998 0.15069 2.49287 -3.79177 3.22266 19.86069 -0.55909 -28.12299 -0.73249 -0.72400 24.79412 -6.28445 -0.09075 -51.76969 -0.36508 -47.43790 35.98077 57.93674 -9.66906 0.48994 2.53007 -15.73329 -14.96370 3.99780 0.08954 -31.56026 -0.01279 15.65556 -5.98294 -18.16850 0.03440 -52.05532 0.14615 5.61603 34.92100 -9.90697 -0.02463 25.07143 0.01048 0.95073 1.71868 -1.59575 0.00880 18.30394 -0.00712 1.59001 2.15752 -0.93945 1.43545 0.42893 0.31827 15.68692 -3.52314 -12.54543 13.83693 0.03679 -0.18173 42.94224 -19.16349 -2.47249 21.75209 0.13564 -0.03060 53.68589 -24.43240 -21.15065 19.69994 0.16657 0.06944 3.22539 -1.20031 -14.03822 4.87698 -1.04401 3.60801 -24.67746 4.19647 -9.06982 2.66501 -0.00002 0.00000 0.00000 0.00000 9.99483 2.54302 0.00000 -0.00001 0.00000 0.00000 15.02905 9.23200 -0.30099 2.14401 -19.98580 0.00000 -0.00000 4.22500 -0.00001 0.00001 -24.98257 0.00000 -0.00000 2.65399 -0.00001 0.00000 -29.88528 2.49254 -4.32799 8.91999 -0.00004 0.00001 -20.03873 0.00000 -0.00000 4.86300 0.00000 -0.00002 -25.04195 0.00000 -0.00000 2.76500 -0.00001 0.00001 -29.93107 2.50233 -4.32897 8.68897 -0.12602 -2.08700 -20.03873 0.00000 -0.00000 4.53801 0.00001 0.00001 -25.04195 0.00000 -0.00000 2.30501 0.00001 0.00000 -29.93107 2.50233 -4.32897 8.39099 -0.81700 -3.75799 -19.98580 0.00000 -0.00000 3.04400 -0.00001 0.00001 -24.98257 0.00000 -0.00000 1.97499 -0.00001 0.00001 -29.88528 2.49254 -4.32799 -1.63645 -0.46857 0.32705 15.47934 3.08617 10.79569 -15.52905 0.00459 -0.00432 -6.41945 -5.24565 -10.85643 -21.19425 0.00071 0.01534 -8.06413 1.19800 3.16995 -26.28005 -0.05837 0.08523 3.78337 13.33338 1.11619 -4.87700 -1.04399 3.60801 40.90519 11.75449 -3.91018 -2.66502 -0.00001 -0.00001 0.00000 -0.00000 -4.99990 -2.54302 0.00001 0.00000 -0.00000 -0.00000 -59.99965 -9.23202 -0.30100 2.14400 -1.99982 -0.00000 0.00000 -4.22502 0.00001 0.00000 -1.99980 -0.00000 0.00000 -2.65398 -0.00001 0.00001 -1.99978 0.00000 0.00000 -8.91998 0.00000 -0.00001 79.99995 -0.00000 0.00000 -4.86302 0.00001 -0.00001 89.99994 -0.00000 0.00000 -2.76499 -0.00001 0.00000 69.99971 -0.00001 0.00001 -8.68900 -0.12599 -2.08700 79.99995 -0.00000 0.00000 -4.53799 -0.00001 -0.00001 89.99994 -0.00000 0.00000 -2.30498 0.00000 -0.00001 69.99971 -0.00001 0.00001 -8.39097 -0.81699 -3.75800 -1.99982 -0.00000 0.00000 -3.04399 -0.00001 0.00000 -1.99980 -0.00000 0.00000 -1.97504 0.00001 0.00001 -1.99978 0.00000 0.00000 0.00024 0.59938 0.00546 0.00002 0.00013 -0.00001 0.00922 5.39322 -0.00548 -4.79007 7.07946 -23.55699 
6.03884 89.42178 -253.55840 5.31952 0.32598 41.33542 4.91358 0.02883 2.45743 -7.89619 1.56767 16.52912 -0.62804 -28.94011 -0.60769 4.99498 26.02938 0.18338 -0.12172 -51.74062 -0.49005 -44.43503 40.85041 53.66011 -9.59088 0.59890 2.47122 -16.19851 -14.47738 3.75034 0.08175 -31.47612 -0.00324 15.66469 -6.75683 -18.02978 0.01883 -52.25218 0.10092 4.86050 35.56265 -8.51579 -0.01999 25.11099 0.00818 1.04744 1.67121 -0.92784 0.00567 18.33983 -0.00610 1.67126 2.10970 -0.23307 1.57176 0.42716 0.28184 14.61666 -3.01283 -11.07792 14.96983 -0.01422 -0.42644 42.15136 -21.44313 -5.44855 21.36454 0.11251 -0.02939 47.83176 -22.64338 -17.79526 19.10242 0.05592 -0.08704 2.59808 -3.70488 -12.97769 4.87698 -1.04401 3.60801 -24.67296 4.20109 -9.07353 2.66501 -0.00002 0.00000 0.00000 0.00000 9.99492 2.54302 0.00000 -0.00001 0.00000 0.00000 15.01793 9.23200 -0.30099 2.14401 -19.99124 0.00000 -0.00000 4.22500 -0.00001 0.00001 -24.98925 0.00000 -0.00000 2.65399 -0.00001 0.00000 -29.89325 2.49262 -4.32808 8.91999 -0.00004 0.00001 -20.02390 0.00000 -0.00000 4.86300 0.00000 -0.00002 -25.02590 0.00000 -0.00000 2.76500 -0.00001 0.00001 -29.92121 2.50220 -4.32904 8.68897 -0.12602 -2.08700 -20.02390 0.00000 -0.00000 4.53801 0.00001 0.00001 -25.02590 0.00000 -0.00000 2.30501 0.00001 0.00000 -29.92121 2.50220 -4.32904 8.39099 -0.81700 -3.75799 -19.99124 0.00000 -0.00000 3.04400 -0.00001 0.00001 -24.98925 0.00000 -0.00000 1.97499 -0.00001 0.00001 -29.89325 2.49262 -4.32808 -1.56395 -0.47978 0.29688 16.66592 3.29812 10.49134 -14.89844 0.02787 -0.07114 -7.29514 -6.27956 -11.55294 -21.12005 0.01406 0.00751 -7.97652 -0.28847 2.57537 -26.54719 -0.09254 0.18144 1.09100 5.73498 -0.33878 -4.87700 -1.04399 3.60801 40.90530 11.75455 -3.91026 -2.66502 -0.00001 -0.00001 0.00000 -0.00000 -4.99995 -2.54302 0.00001 0.00000 -0.00000 -0.00000 -59.99983 -9.23202 -0.30100 2.14400 -1.99991 -0.00000 0.00000 -4.22502 0.00001 0.00000 -1.99990 -0.00000 0.00000 -2.65398 -0.00001 0.00001 -1.99989 0.00000 0.00000 -8.91998 0.00000 -0.00001 80.00000 -0.00000 0.00000 -4.86302 0.00001 -0.00001 90.00000 -0.00000 0.00000 -2.76499 -0.00001 0.00000 69.99986 -0.00001 0.00001 -8.68900 -0.12599 -2.08700 80.00000 -0.00000 0.00000 -4.53799 -0.00001 -0.00001 90.00000 -0.00000 0.00000 -2.30498 0.00000 -0.00001 69.99986 -0.00001 0.00001 -8.39097 -0.81699 -3.75800 -1.99991 -0.00000 0.00000 -3.04399 -0.00001 0.00000 -1.99990 -0.00000 0.00000 -1.97504 0.00001 0.00001 -1.99989 0.00000 0.00000 0.00036 0.60018 0.00546 0.00002 0.00013 -0.00001 0.00430 5.40369 -0.00454 -6.02994 7.51164 -25.40363 
7.00939 88.27044 -253.57443 6.40425 -0.02714 41.75620 4.54239 0.09756 2.44636 -11.96820 2.28191 15.10258 -0.47308 -29.02607 -0.48974 9.55363 26.38622 5.76622 -0.13439 -51.74680 -0.52458 -40.49095 45.06384 48.39391 -9.22253 0.59707 2.44822 -14.93099 -16.07438 5.83979 0.25559 -32.45097 0.14278 12.67300 -2.50701 -18.51063 0.05846 -50.21014 0.25538 4.12417 34.23304 -7.02567 -0.04787 25.83216 -0.02540 0.86085 2.02501 -0.10968 -0.00572 18.66500 -0.00532 1.56148 2.31182 0.69464 1.69327 0.42164 0.26818 13.60217 -2.63492 -10.15441 16.00076 -0.05474 -0.49956 38.92416 -21.69497 -6.83648 20.84992 0.13886 -0.06990 43.30460 -22.85020 -15.28265 18.58999 -0.06205 -0.25226 3.97947 -6.29508 -10.47435 4.87698 -1.04401 3.60801 -24.67015 4.20397 -9.07582 2.66501 -0.00002 0.00000 0.00000 0.00000 9.99500 2.54302 0.00000 -0.00001 0.00000 0.00000 15.01099 9.23200 -0.30099 2.14401 -19.99463 0.00000 -0.00000 4.22500 -0.00001 0.00001 -24.99341 0.00000 -0.00000 2.65399 -0.00001 0.00000 -29.89821 2.49271 -4.32816 8.91999 -0.00004 0.00001 -20.01465 0.00000 -0.00000 4.86300 0.00000 -0.00002 -25.01587 0.00000 -0.00000 2.76500 -0.00001 0.00001 -29.91508 2.50207 -4.32910 8.68897 -0.12602 -2.08700 -20.01465 0.00000 -0.00000 4.53801 0.00001 0.00001 -25.01587 0.00000 -0.00000 2.30501 0.00001 0.00000 -29.91508 2.50207 -4.32910 8.39099 -0.81700 -3.75799 -19.99463 0.00000 -0.00000 3.04400 -0.00001 0.00001 -24.99341 0.00000 -0.00000 1.97499 -0.00001 0.00001 -29.89821 2.49271 -4.32816 -1.49266 -0.48888 0.28414 17.77263 3.62364 10.67617 -14.30544 0.03968 -0.11061 -7.98992 -6.28436 -12.04073 -21.44107 0.00010 0.02726 -7.01303 -2.60930 3.33751 -25.40599 0.01294 0.12910 -0.53815 -12.47001 -0.92888 -4.87700 -1.04399 3.60801 40.90540 11.75460 -3.91034 -2.66502 -0.00001 -0.00001 0.00000 -0.00000 -5.00000 -2.54302 0.00001 0.00000 -0.00000 -0.00000 -60.00000 -9.23202 -0.30100 2.14400 -2.00000 -0.00000 0.00000 -4.22502 0.00001 0.00000 -2.00000 -0.00000 0.00000 -2.65398 -0.00001 0.00001 -2.00000 0.00000 0.00000 -8.91998 0.00000 -0.00001 80.00000 -0.00000 0.00000 -4.86302 0.00001 -0.00001 90.00000 -0.00000 0.00000 -2.76499 -0.00001 0.00000 70.00000 -0.00001 0.00001 -8.68900 -0.12599 -2.08700 80.00000 -0.00000 0.00000 -4.53799 -0.00001 -0.00001 90.00000 -0.00000 0.00000 -2.30498 0.00000 -0.00001 70.00000 -0.00001 0.00001 -8.39097 -0.81699 -3.75800 -2.00000 -0.00000 0.00000 -3.04399 -0.00001 0.00000 -2.00000 -0.00000 0.00000 -1.97504 0.00001 0.00001 -2.00000 0.00000 0.00000 0.00048 0.60673 0.00546 0.00002 0.00013 -0.00001 -0.00124 5.46357 -0.00405 -7.33633 8.24962 -26.22146 
7.67300 87.39587 -253.55338 6.89005 -0.13492 41.74707 4.25774 0.12759 2.45913 -14.52312 2.17988 14.93580 -0.36075 -29.12756 -0.36369 12.96507 27.26326 10.04634 -0.13744 -51.77176 -0.50612 -35.92270 48.57521 42.51637 -8.93341 0.60872 2.46020 -13.94633 -17.49735 7.77029 0.29780 -33.20271 0.19630 11.31965 0.31205 -18.66454 -0.00214 -49.13512 0.25246 3.52689 33.32197 -5.99392 -0.04492 26.17308 -0.02865 0.76739 2.10608 0.89992 -0.00671 18.90709 -0.00465 1.58990 2.17802 1.69632 1.82481 0.40758 0.26271 12.39362 -2.29916 -9.49001 17.11972 -0.10765 -0.53569 36.42703 -21.52721 -7.83789 20.31667 0.13647 -0.09866 38.23392 -22.55428 -11.65821 18.45807 -0.30753 -0.65373 3.36665 -8.71072 -10.23942 4.87698 -1.04401 3.60801 -24.67006 4.20406 -9.07589 2.66501 -0.00002 0.00000 0.00000 0.00000 9.99509 2.54302 0.00000 -0.00001 0.00000 0.00000 15.00676 9.23200 -0.30099 2.14401 -19.99473 0.00000 -0.00000 4.22500 -0.00001 0.00001 -24.99594 0.00000 -0.00000 2.65399 -0.00001 0.00000 -29.90123 2.49280 -4.32824 8.91999 -0.00004 0.00001 -20.00902 0.00000 -0.00000 4.86300 0.00000 -0.00002 -25.00977 0.00000 -0.00000 2.76500 -0.00001 0.00001 -29.91133 2.50195 -4.32917 8.68897 -0.12602 -2.08700 -20.00902 0.00000 -0.00000 4.53801 0.00001 0.00001 -25.00977 0.00000 -0.00000 2.30501 0.00001 0.00000 -29.91133 2.50195 -4.32917 8.39099 -0.81700 -3.75799 -19.99473 0.00000 -0.00000 3.04400 -0.00001 0.00001 -24.99594 0.00000 -0.00000 1.97499 -0.00001 0.00001 -29.90123 2.49280 -4.32824 -1.42527 -0.49550 0.28131 18.71337 4.00920 11.14960 -13.76035 0.03564 -0.12864 -8.64381 -6.05731 -11.85077 -22.48063 -0.04142 0.15396 -5.26810 -5.46308 4.56416 -23.89350 0.18890 0.01301 -0.55880 -40.29574 -2.28074 -4.87700 -1.04399 3.60801 40.90901 11.75567 -3.91272 -2.66502 -0.00001 -0.00001 0.00000 -0.00000 -4.99900 -2.54302 0.00001 0.00000 -0.00000 -0.00000 -60.00900 -9.23202 -0.30100 2.14400 -2.00440 -0.00000 0.00000 -4.22502 0.00001 0.00000 -2.00539 -0.00000 0.00000 -2.65398 -0.00001 0.00001 -2.00640 -0.00018 -0.00099 -8.91998 0.00000 -0.00001 80.01200 -0.00000 0.00000 -4.86302 0.00001 -0.00001 90.01300 -0.00000 0.00000 -2.76499 -0.00001 0.00000 70.00799 -0.00082 -0.00058 -8.68900 -0.12599 -2.08700 80.01200 -0.00000 0.00000 -4.53799 -0.00001 -0.00001 90.01300 -0.00000 0.00000 -2.30498 0.00000 -0.00001 70.00799 -0.00082 -0.00058 -8.39097 -0.81699 -3.75800 -2.00440 -0.00000 0.00000 -3.04399 -0.00001 0.00000 -2.00539 -0.00000 0.00000 -1.97504 0.00001 0.00001 -2.00640 -0.00018 -0.00099 0.00060 0.61574 0.00546 0.00002 0.00013 -0.00001 -0.00494 5.54532 -0.00400 -8.33431 8.48823 -27.28808 
